<svg width="6" height="6" viewBox="0 0 6 6" fill="none" xmlns="http://www.w3.org/2000/svg">
<path d="M2.51 5.34C2.44333 5.34 2.38667 5.32 2.34 5.28C2.3 5.23333 2.28 5.17667 2.28 5.11V3.03H0.23C0.163333 3.03 0.106667 3.01 0.06 2.97C0.02 2.92333 0 2.86667 0 2.8V2.48C0 2.41333 0.02 2.36 0.06 2.32C0.106667 2.27333 0.163333 2.25 0.23 2.25H2.28V0.23C2.28 0.163333 2.3 0.11 2.34 0.0700004C2.38667 0.0233335 2.44333 0 2.51 0H2.86C2.92667 0 2.98 0.0233335 3.02 0.0700004C3.06667 0.11 3.09 0.163333 3.09 0.23V2.25H5.15C5.21667 2.25 5.27 2.27333 5.31 2.32C5.35667 2.36 5.38 2.41333 5.38 2.48V2.8C5.38 2.86667 5.35667 2.92333 5.31 2.97C5.27 3.01 5.21667 3.03 5.15 3.03H3.09V5.11C3.09 5.17667 3.06667 5.23333 3.02 5.28C2.98 5.32 2.92667 5.34 2.86 5.34H2.51Z" fill="black"/>
</svg>
